<?xml version="1.0" standalone="no"?>
<!DOCTYPE svg PUBLIC "-//W3C//DTD SVG 20010904//EN"
 "http://www.w3.org/TR/2001/REC-SVG-20010904/DTD/svg10.dtd">
<svg version="1.0" xmlns="http://www.w3.org/2000/svg"
 width="80.000000pt" height="80.000000pt" viewBox="0 0 80.000000 80.000000"
 preserveAspectRatio="xMidYMid meet">
<metadata>
Created by potrace 1.14, written by Peter Selinger 2001-2017
</metadata>
<g transform="translate(0.000000,80.000000) scale(0.100000,-0.100000)"
fill="#000000" stroke="none">
<path d="M334 736 c-78 -80 -80 -83 -58 -108 18 -19 18 -20 1 -33 -25 -18 -22
-26 33 -80 48 -48 50 -48 70 -30 19 18 21 18 40 0 20 -18 22 -18 70 30 55 55
59 65 30 83 -17 11 -25 6 -70 -39 l-50 -50 -51 50 -52 51 51 53 50 54 50 -50
c34 -34 55 -48 66 -44 37 14 27 37 -44 107 -39 38 -72 70 -73 69 -1 0 -29 -29
-63 -63z"/>
<path d="M70 470 l-70 -71 70 -69 c39 -39 74 -70 77 -70 4 0 14 7 24 16 17 15
19 15 34 0 9 -9 20 -16 24 -16 4 0 29 22 56 50 48 48 48 50 30 70 -18 19 -18
21 0 40 18 20 18 22 -30 70 -54 55 -62 58 -80 33 -13 -17 -14 -17 -32 0 -11 9
-23 17 -26 17 -4 0 -39 -32 -77 -70z m172 -20 l49 -50 -50 -50 c-27 -27 -51
-50 -54 -50 -2 0 -26 22 -54 49 l-50 50 49 50 c27 28 52 51 55 51 3 0 28 -22
55 -50z"/>
<path d="M515 490 c-41 -42 -46 -51 -35 -65 19 -23 32 -19 80 30 24 25 47 45
51 45 10 0 99 -91 99 -101 0 -5 -21 -28 -46 -53 -46 -46 -51 -61 -22 -79 12
-8 31 6 86 61 l72 72 -70 70 c-38 38 -73 70 -77 70 -3 0 -14 -7 -24 -16 -17
-15 -19 -15 -34 0 -9 9 -20 16 -24 16 -4 0 -29 -22 -56 -50z"/>
<path d="M485 380 c-18 -20 -18 -22 30 -70 54 -54 59 -57 81 -36 19 20 19 19
-24 63 -62 64 -66 66 -87 43z"/>
<path d="M307 282 c-50 -50 -56 -66 -32 -76 8 -3 15 -12 15 -20 0 -7 -7 -16
-15 -20 -25 -9 -18 -23 54 -96 l69 -71 72 71 c71 70 81 93 45 106 -10 4 -32
-10 -61 -40 -25 -25 -49 -46 -52 -46 -8 1 -70 58 -90 83 -12 14 -7 23 38 68
l52 52 54 -54 c53 -52 56 -53 70 -35 8 11 14 23 14 26 0 3 -22 28 -50 55 -47
46 -50 48 -68 32 -19 -17 -52 -14 -52 4 0 18 -17 8 -63 -39z"/>
</g>
</svg>
